%TF.GenerationSoftware,KiCad,Pcbnew,8.0.5*%
%TF.CreationDate,2024-11-02T20:08:25+01:00*%
%TF.ProjectId,universal_remote,756e6976-6572-4736-916c-5f72656d6f74,rev?*%
%TF.SameCoordinates,Original*%
%TF.FileFunction,Copper,L2,Bot*%
%TF.FilePolarity,Positive*%
%FSLAX46Y46*%
G04 Gerber Fmt 4.6, Leading zero omitted, Abs format (unit mm)*
G04 Created by KiCad (PCBNEW 8.0.5) date 2024-11-02 20:08:25*
%MOMM*%
%LPD*%
G01*
G04 APERTURE LIST*
G04 Aperture macros list*
%AMRoundRect*
0 Rectangle with rounded corners*
0 $1 Rounding radius*
0 $2 $3 $4 $5 $6 $7 $8 $9 X,Y pos of 4 corners*
0 Add a 4 corners polygon primitive as box body*
4,1,4,$2,$3,$4,$5,$6,$7,$8,$9,$2,$3,0*
0 Add four circle primitives for the rounded corners*
1,1,$1+$1,$2,$3*
1,1,$1+$1,$4,$5*
1,1,$1+$1,$6,$7*
1,1,$1+$1,$8,$9*
0 Add four rect primitives between the rounded corners*
20,1,$1+$1,$2,$3,$4,$5,0*
20,1,$1+$1,$4,$5,$6,$7,0*
20,1,$1+$1,$6,$7,$8,$9,0*
20,1,$1+$1,$8,$9,$2,$3,0*%
G04 Aperture macros list end*
%TA.AperFunction,ComponentPad*%
%ADD10C,1.400000*%
%TD*%
%TA.AperFunction,ComponentPad*%
%ADD11O,1.400000X1.400000*%
%TD*%
%TA.AperFunction,ComponentPad*%
%ADD12R,1.700000X1.700000*%
%TD*%
%TA.AperFunction,ComponentPad*%
%ADD13O,1.700000X1.700000*%
%TD*%
%TA.AperFunction,ComponentPad*%
%ADD14R,1.800000X1.800000*%
%TD*%
%TA.AperFunction,ComponentPad*%
%ADD15C,1.800000*%
%TD*%
%TA.AperFunction,ComponentPad*%
%ADD16RoundRect,0.248400X0.651600X0.651600X-0.651600X0.651600X-0.651600X-0.651600X0.651600X-0.651600X0*%
%TD*%
%TA.AperFunction,ComponentPad*%
%ADD17R,1.600000X1.600000*%
%TD*%
%TA.AperFunction,ComponentPad*%
%ADD18O,1.600000X1.600000*%
%TD*%
%TA.AperFunction,ViaPad*%
%ADD19C,0.600000*%
%TD*%
%TA.AperFunction,Conductor*%
%ADD20C,0.200000*%
%TD*%
G04 APERTURE END LIST*
D10*
%TO.P,R4,1*%
%TO.N,Net-(A1-GND-Pad29)*%
X131500000Y-101200000D03*
D11*
%TO.P,R4,2*%
%TO.N,Net-(A1-A2)*%
X126420000Y-101200000D03*
%TD*%
D10*
%TO.P,R5,1*%
%TO.N,Net-(A1-GND-Pad29)*%
X131500000Y-98050000D03*
D11*
%TO.P,R5,2*%
%TO.N,Net-(A1-A3)*%
X126420000Y-98050000D03*
%TD*%
D10*
%TO.P,R6,1*%
%TO.N,Net-(A1-GND-Pad29)*%
X131500000Y-94900000D03*
D11*
%TO.P,R6,2*%
%TO.N,Net-(A1-A4)*%
X126420000Y-94900000D03*
%TD*%
D10*
%TO.P,R2,1*%
%TO.N,Net-(A1-GND-Pad29)*%
X131500000Y-107500000D03*
D11*
%TO.P,R2,2*%
%TO.N,Net-(A1-A0)*%
X126420000Y-107500000D03*
%TD*%
D12*
%TO.P,J1,1,Pin_1*%
%TO.N,Net-(D1-K)*%
X137220000Y-39000000D03*
D13*
%TO.P,J1,2,Pin_2*%
%TO.N,Net-(A1-+5V)*%
X139760000Y-39000000D03*
%TO.P,J1,3,Pin_3*%
%TO.N,Net-(A1-D13)*%
X142300000Y-39000000D03*
%TO.P,J1,4,Pin_4*%
%TO.N,Net-(A1-D11)*%
X144840000Y-39000000D03*
%TO.P,J1,5,Pin_5*%
%TO.N,Net-(A1-D8)*%
X147380000Y-39000000D03*
%TO.P,J1,6,Pin_6*%
%TO.N,Net-(A1-D9)*%
X149920000Y-39000000D03*
%TO.P,J1,7,Pin_7*%
%TO.N,Net-(A1-D10)*%
X152460000Y-39000000D03*
%TO.P,J1,8,Pin_8*%
%TO.N,Net-(A1-3V3)*%
X155000000Y-39000000D03*
%TD*%
D14*
%TO.P,rightBtn,1,A*%
%TO.N,Net-(A1-A3)*%
X154500000Y-114500000D03*
D15*
%TO.P,rightBtn,2,A*%
X159500000Y-114500000D03*
%TO.P,rightBtn,3,B*%
%TO.N,Net-(A1-+5V)*%
X154500000Y-120500000D03*
%TO.P,rightBtn,4,B*%
X159500000Y-120500000D03*
%TD*%
D14*
%TO.P,confirmBtn,1,A*%
%TO.N,Net-(A1-A5)*%
X141000000Y-114500000D03*
D15*
%TO.P,confirmBtn,2,A*%
X146000000Y-114500000D03*
%TO.P,confirmBtn,3,B*%
%TO.N,Net-(A1-+5V)*%
X141000000Y-120500000D03*
%TO.P,confirmBtn,4,B*%
X146000000Y-120500000D03*
%TD*%
D12*
%TO.P,J2,1,Pin_1*%
%TO.N,Net-(BT1-+)*%
X126960000Y-147000000D03*
D13*
%TO.P,J2,2,Pin_2*%
%TO.N,Net-(BT1--)*%
X129500000Y-147000000D03*
%TD*%
D14*
%TO.P,downBtn,1,A*%
%TO.N,Net-(A1-A1)*%
X141000000Y-128000000D03*
D15*
%TO.P,downBtn,2,A*%
X146000000Y-128000000D03*
%TO.P,downBtn,3,B*%
%TO.N,Net-(A1-+5V)*%
X141000000Y-134000000D03*
%TO.P,downBtn,4,B*%
X146000000Y-134000000D03*
%TD*%
D14*
%TO.P,upBtn,1,A*%
%TO.N,Net-(A1-A0)*%
X141000000Y-101500000D03*
D15*
%TO.P,upBtn,2,A*%
X146000000Y-101500000D03*
%TO.P,upBtn,3,B*%
%TO.N,Net-(A1-+5V)*%
X141000000Y-107500000D03*
%TO.P,upBtn,4,B*%
X146000000Y-107500000D03*
%TD*%
D10*
%TO.P,R7,1*%
%TO.N,Net-(A1-GND-Pad29)*%
X131500000Y-91750000D03*
D11*
%TO.P,R7,2*%
%TO.N,Net-(A1-A5)*%
X126420000Y-91750000D03*
%TD*%
D16*
%TO.P,U1,1,OUT*%
%TO.N,Net-(A1-D2)*%
X121500000Y-39815000D03*
D15*
%TO.P,U1,2,GND*%
%TO.N,Net-(D1-K)*%
X118960000Y-39815000D03*
%TO.P,U1,3,Vs*%
%TO.N,Net-(A1-+5V)*%
X116420000Y-39815000D03*
%TD*%
D17*
%TO.P,A1,1,D1/TX*%
%TO.N,unconnected-(A1-D1{slash}TX-Pad1)*%
X103760000Y-83600000D03*
D18*
%TO.P,A1,2,D0/RX*%
%TO.N,unconnected-(A1-D0{slash}RX-Pad2)*%
X103760000Y-86140000D03*
%TO.P,A1,3,~{RESET}*%
%TO.N,unconnected-(A1-~{RESET}-Pad3)*%
X103760000Y-88680000D03*
%TO.P,A1,4,GND*%
%TO.N,Net-(D1-K)*%
X103760000Y-91220000D03*
%TO.P,A1,5,D2*%
%TO.N,Net-(A1-D2)*%
X103760000Y-93760000D03*
%TO.P,A1,6,D3*%
%TO.N,Net-(A1-D3)*%
X103760000Y-96300000D03*
%TO.P,A1,7,D4*%
%TO.N,unconnected-(A1-D4-Pad7)*%
X103760000Y-98840000D03*
%TO.P,A1,8,D5*%
%TO.N,unconnected-(A1-D5-Pad8)*%
X103760000Y-101380000D03*
%TO.P,A1,9,D6*%
%TO.N,unconnected-(A1-D6-Pad9)*%
X103760000Y-103920000D03*
%TO.P,A1,10,D7*%
%TO.N,unconnected-(A1-D7-Pad10)*%
X103760000Y-106460000D03*
%TO.P,A1,11,D8*%
%TO.N,Net-(A1-D8)*%
X103760000Y-109000000D03*
%TO.P,A1,12,D9*%
%TO.N,Net-(A1-D9)*%
X103760000Y-111540000D03*
%TO.P,A1,13,D10*%
%TO.N,Net-(A1-D10)*%
X103760000Y-114080000D03*
%TO.P,A1,14,D11*%
%TO.N,Net-(A1-D11)*%
X103760000Y-116620000D03*
%TO.P,A1,15,D12*%
%TO.N,unconnected-(A1-D12-Pad15)*%
X103760000Y-119160000D03*
%TO.P,A1,16,D13*%
%TO.N,Net-(A1-D13)*%
X119000000Y-119160000D03*
%TO.P,A1,17,3V3*%
%TO.N,Net-(A1-3V3)*%
X119000000Y-116620000D03*
%TO.P,A1,18,AREF*%
%TO.N,unconnected-(A1-AREF-Pad18)*%
X119000000Y-114080000D03*
%TO.P,A1,19,A0*%
%TO.N,Net-(A1-A0)*%
X119000000Y-111540000D03*
%TO.P,A1,20,A1*%
%TO.N,Net-(A1-A1)*%
X119000000Y-109000000D03*
%TO.P,A1,21,A2*%
%TO.N,Net-(A1-A2)*%
X119000000Y-106460000D03*
%TO.P,A1,22,A3*%
%TO.N,Net-(A1-A3)*%
X119000000Y-103920000D03*
%TO.P,A1,23,A4*%
%TO.N,Net-(A1-A4)*%
X119000000Y-101380000D03*
%TO.P,A1,24,A5*%
%TO.N,Net-(A1-A5)*%
X119000000Y-98840000D03*
%TO.P,A1,25,A6*%
%TO.N,unconnected-(A1-A6-Pad25)*%
X119000000Y-96300000D03*
%TO.P,A1,26,A7*%
%TO.N,unconnected-(A1-A7-Pad26)*%
X119000000Y-93760000D03*
%TO.P,A1,27,+5V*%
%TO.N,Net-(A1-+5V)*%
X119000000Y-91220000D03*
%TO.P,A1,28,~{RESET}*%
%TO.N,unconnected-(A1-~{RESET}-Pad28)*%
X119000000Y-88680000D03*
%TO.P,A1,29,GND*%
%TO.N,Net-(A1-GND-Pad29)*%
X119000000Y-86140000D03*
%TO.P,A1,30,VIN*%
%TO.N,unconnected-(A1-VIN-Pad30)*%
X119000000Y-83600000D03*
%TD*%
D10*
%TO.P,R220,1*%
%TO.N,Net-(D1-A)*%
X106500000Y-45000000D03*
D11*
%TO.P,R220,2*%
%TO.N,Net-(A1-D3)*%
X106500000Y-50080000D03*
%TD*%
D14*
%TO.P,leftBtn,1,A*%
%TO.N,Net-(A1-A2)*%
X127500000Y-114500000D03*
D15*
%TO.P,leftBtn,2,A*%
X132500000Y-114500000D03*
%TO.P,leftBtn,3,B*%
%TO.N,Net-(A1-+5V)*%
X127500000Y-120500000D03*
%TO.P,leftBtn,4,B*%
X132500000Y-120500000D03*
%TD*%
D14*
%TO.P,IR-Tx,1,K*%
%TO.N,Net-(D1-K)*%
X109500000Y-39000000D03*
D15*
%TO.P,IR-Tx,2,A*%
%TO.N,Net-(D1-A)*%
X106960000Y-39000000D03*
%TD*%
D10*
%TO.P,R3,1*%
%TO.N,Net-(A1-GND-Pad29)*%
X131500000Y-104350000D03*
D11*
%TO.P,R3,2*%
%TO.N,Net-(A1-A1)*%
X126420000Y-104350000D03*
%TD*%
D12*
%TO.P,J3,1,Pin_1*%
%TO.N,Net-(BT1-+)*%
X124500000Y-69500000D03*
D13*
%TO.P,J3,2,Pin_2*%
%TO.N,Net-(BT1--)*%
X124500000Y-66960000D03*
%TO.P,J3,3,Pin_3*%
%TO.N,Net-(J3-Pin_3)*%
X124500000Y-64420000D03*
%TO.P,J3,4,Pin_4*%
%TO.N,Net-(D1-K)*%
X124500000Y-61880000D03*
%TD*%
D12*
%TO.P,BT1,1,+*%
%TO.N,Net-(BT1-+)*%
X123725000Y-86000000D03*
D13*
%TO.P,BT1,2,-*%
%TO.N,Net-(BT1--)*%
X126265000Y-86000000D03*
%TD*%
D12*
%TO.P,J4,1,Pin_1*%
%TO.N,Net-(D1-K)*%
X124500000Y-54000000D03*
D13*
%TO.P,J4,2,Pin_2*%
%TO.N,Net-(A1-+5V)*%
X124500000Y-51460000D03*
%TO.P,J4,3,Pin_3*%
%TO.N,Net-(J3-Pin_3)*%
X124500000Y-48920000D03*
%TD*%
D14*
%TO.P,backBtn,1,A*%
%TO.N,Net-(A1-A4)*%
X127500000Y-128000000D03*
D15*
%TO.P,backBtn,2,A*%
X132500000Y-128000000D03*
%TO.P,backBtn,3,B*%
%TO.N,Net-(A1-+5V)*%
X127500000Y-134000000D03*
%TO.P,backBtn,4,B*%
X132500000Y-134000000D03*
%TD*%
D19*
%TO.N,Net-(BT1-+)*%
X122000000Y-139500000D03*
%TO.N,Net-(BT1--)*%
X123500000Y-138000000D03*
%TO.N,Net-(A1-D10)*%
X131000000Y-58500000D03*
%TO.N,Net-(A1-D13)*%
X112500000Y-89500000D03*
%TO.N,Net-(A1-D9)*%
X128500000Y-71400000D03*
%TO.N,Net-(A1-+5V)*%
X132080000Y-132080000D03*
X135000000Y-91000000D03*
X128905000Y-134620000D03*
X135000000Y-46500000D03*
X116500000Y-45500000D03*
%TO.N,Net-(A1-A0)*%
X114500000Y-91500000D03*
%TO.N,Net-(A1-A2)*%
X121000000Y-110500000D03*
%TO.N,Net-(A1-3V3)*%
X129000000Y-80000000D03*
%TO.N,Net-(A1-A1)*%
X133479795Y-135000000D03*
X144145000Y-124460000D03*
%TO.N,Net-(A1-D2)*%
X124000000Y-40500000D03*
%TO.N,Net-(A1-D8)*%
X131000000Y-72000000D03*
%TO.N,Net-(A1-D11)*%
X128000000Y-73500000D03*
%TO.N,Net-(A1-A4)*%
X125730000Y-128905000D03*
X129540000Y-130175000D03*
%TD*%
D20*
%TO.N,Net-(BT1-+)*%
X123725000Y-89123529D02*
X123725000Y-86000000D01*
X123000000Y-91000000D02*
X123000000Y-89848529D01*
X122000000Y-92000000D02*
X123000000Y-91000000D01*
X122000000Y-139500000D02*
X122000000Y-92000000D01*
X123000000Y-89848529D02*
X123725000Y-89123529D01*
%TO.N,Net-(BT1--)*%
X126000000Y-87500000D02*
X126265000Y-87235000D01*
X126000000Y-88000000D02*
X126000000Y-87500000D01*
X126265000Y-87235000D02*
X126265000Y-86000000D01*
X124000000Y-90000000D02*
X126000000Y-88000000D01*
X123500000Y-138000000D02*
X124000000Y-137500000D01*
X124000000Y-137500000D02*
X124000000Y-90000000D01*
%TO.N,Net-(A1-D10)*%
X123730000Y-63270000D02*
X106000000Y-81000000D01*
X106000000Y-81000000D02*
X106000000Y-103500000D01*
X104140000Y-105360000D02*
X103240000Y-105360000D01*
X102100000Y-106500000D02*
X102100000Y-112420000D01*
X131000000Y-58500000D02*
X126230000Y-63270000D01*
X126230000Y-63270000D02*
X123730000Y-63270000D01*
X102100000Y-112420000D02*
X103760000Y-114080000D01*
X103240000Y-105360000D02*
X102100000Y-106500000D01*
X106000000Y-103500000D02*
X104140000Y-105360000D01*
%TO.N,Net-(A1-D13)*%
X112500000Y-112660000D02*
X119000000Y-119160000D01*
X112500000Y-89500000D02*
X112500000Y-112660000D01*
%TO.N,Net-(A1-D9)*%
X104215635Y-107900000D02*
X103304365Y-107900000D01*
X108500000Y-90500000D02*
X108500000Y-103615635D01*
X127600000Y-71400000D02*
X108500000Y-90500000D01*
X128500000Y-71400000D02*
X127600000Y-71400000D01*
X108500000Y-103615635D02*
X104215635Y-107900000D01*
X102660000Y-108544365D02*
X102660000Y-110440000D01*
X102660000Y-110440000D02*
X103760000Y-111540000D01*
X103304365Y-107900000D02*
X102660000Y-108544365D01*
%TO.N,Net-(A1-+5V)*%
X128905000Y-134620000D02*
X129540000Y-134620000D01*
X116500000Y-45000000D02*
X116420000Y-44920000D01*
X129540000Y-134620000D02*
X132080000Y-132080000D01*
X135000000Y-91000000D02*
X135000000Y-46500000D01*
X116420000Y-44920000D02*
X116420000Y-39815000D01*
X116500000Y-45500000D02*
X116500000Y-45000000D01*
%TO.N,Net-(A1-A0)*%
X114500000Y-107040000D02*
X119000000Y-111540000D01*
X114500000Y-91500000D02*
X114500000Y-107040000D01*
%TO.N,Net-(A1-A2)*%
X121000000Y-110500000D02*
X121000000Y-108460000D01*
X121000000Y-108460000D02*
X119000000Y-106460000D01*
%TO.N,Net-(A1-3V3)*%
X129000000Y-80000000D02*
X127425000Y-80000000D01*
X121000000Y-111984365D02*
X121000000Y-117000000D01*
X118465686Y-110440000D02*
X119455635Y-110440000D01*
X127425000Y-80000000D02*
X122385000Y-85040000D01*
X119380000Y-117000000D02*
X119000000Y-116620000D01*
X116012843Y-87571522D02*
X116012843Y-107987157D01*
X119455635Y-110440000D02*
X121000000Y-111984365D01*
X122385000Y-85040000D02*
X118544365Y-85040000D01*
X121000000Y-117000000D02*
X119380000Y-117000000D01*
X118544365Y-85040000D02*
X116012843Y-87571522D01*
X116012843Y-107987157D02*
X118465686Y-110440000D01*
%TO.N,Net-(A1-A1)*%
X135255000Y-133224795D02*
X133479795Y-135000000D01*
X144145000Y-124460000D02*
X135255000Y-124460000D01*
X135255000Y-124460000D02*
X135255000Y-133224795D01*
%TO.N,Net-(A1-D2)*%
X102660000Y-92660000D02*
X103760000Y-93760000D01*
X102660000Y-61840000D02*
X102660000Y-92660000D01*
X124000000Y-40500000D02*
X102660000Y-61840000D01*
%TO.N,Net-(A1-D8)*%
X131000000Y-72000000D02*
X128000000Y-72000000D01*
X109000000Y-103760000D02*
X103760000Y-109000000D01*
X109000000Y-91000000D02*
X109000000Y-103760000D01*
X128000000Y-72000000D02*
X109000000Y-91000000D01*
%TO.N,Net-(A1-D11)*%
X110500000Y-90544365D02*
X110500000Y-112500000D01*
X127544365Y-73500000D02*
X110500000Y-90544365D01*
X105880000Y-116620000D02*
X103760000Y-116620000D01*
X110500000Y-112500000D02*
X110000000Y-112500000D01*
X128000000Y-73500000D02*
X127544365Y-73500000D01*
X110000000Y-112500000D02*
X105880000Y-116620000D01*
%TO.N,Net-(A1-A4)*%
X129540000Y-130175000D02*
X127000000Y-130175000D01*
X127000000Y-130175000D02*
X125730000Y-128905000D01*
%TD*%
M02*
