M48
; DRILL file {KiCad 8.0.5} date 2024-10-10T14:23:33+0200
; FORMAT={-:-/ absolute / inch / decimal}
; #@! TF.CreationDate,2024-10-10T14:23:33+02:00
; #@! TF.GenerationSoftware,Kicad,Pcbnew,8.0.5
; #@! TF.FileFunction,Plated,1,2,PTH
FMAT,2
INCH
; #@! TA.AperFunction,Plated,PTH,ViaDrill
T1C0.0118
; #@! TA.AperFunction,Plated,PTH,ComponentDrill
T2C0.0276
; #@! TA.AperFunction,Plated,PTH,ComponentDrill
T3C0.0354
; #@! TA.AperFunction,Plated,PTH,ComponentDrill
T4C0.0394
%
G90
G05
T1
X4.4291Y-3.5236
X4.5079Y-3.6024
X4.5866Y-1.7913
X4.7638Y-4.3504
X4.8031Y-5.4921
X4.8622Y-5.4331
X4.8819Y-1.5945
X5.0394Y-2.8937
X5.0591Y-2.811
X5.0787Y-3.1496
X5.1575Y-2.3031
X5.1575Y-2.8346
T2
X4.1929Y-1.7717
X4.1929Y-1.9717
X4.9772Y-3.6122
X4.9772Y-3.7362
X4.9772Y-3.8602
X4.9772Y-3.9843
X4.9772Y-4.1083
X4.9772Y-4.2323
X5.1772Y-3.6122
X5.1772Y-3.7362
X5.1772Y-3.8602
X5.1772Y-3.9843
X5.1772Y-4.1083
X5.1772Y-4.2323
T3
X4.211Y-1.5354
X4.311Y-1.5354
X4.5835Y-1.5675
X4.6835Y-1.5675
X4.7835Y-1.5675
X5.0197Y-4.5079
X5.0197Y-4.7441
X5.0197Y-5.0394
X5.0197Y-5.2756
X5.2165Y-4.5079
X5.2165Y-4.7441
X5.2165Y-5.0394
X5.2165Y-5.2756
X5.5512Y-3.9961
X5.5512Y-4.2323
X5.5512Y-4.5079
X5.5512Y-4.7441
X5.5512Y-5.0394
X5.5512Y-5.2756
X5.748Y-3.9961
X5.748Y-4.2323
X5.748Y-4.5079
X5.748Y-4.7441
X5.748Y-5.0394
X5.748Y-5.2756
X6.0827Y-4.5079
X6.0827Y-4.7441
X6.2795Y-4.5079
X6.2795Y-4.7441
T4
X4.085Y-3.2913
X4.085Y-3.3913
X4.085Y-3.4913
X4.085Y-3.5913
X4.085Y-3.6913
X4.085Y-3.7913
X4.085Y-3.8913
X4.085Y-3.9913
X4.085Y-4.0913
X4.085Y-4.1913
X4.085Y-4.2913
X4.085Y-4.3913
X4.085Y-4.4913
X4.085Y-4.5913
X4.085Y-4.6913
X4.685Y-3.2913
X4.685Y-3.3913
X4.685Y-3.4913
X4.685Y-3.5913
X4.685Y-3.6913
X4.685Y-3.7913
X4.685Y-3.8913
X4.685Y-3.9913
X4.685Y-4.0913
X4.685Y-4.1913
X4.685Y-4.2913
X4.685Y-4.3913
X4.685Y-4.4913
X4.685Y-4.5913
X4.685Y-4.6913
X4.8711Y-3.3858
X4.9016Y-1.926
X4.9016Y-2.026
X4.9016Y-2.126
X4.9016Y-2.4362
X4.9016Y-2.5362
X4.9016Y-2.6362
X4.9016Y-2.7362
X4.9711Y-3.3858
X4.9984Y-5.7874
X5.0984Y-5.7874
X5.4024Y-1.5354
X5.5024Y-1.5354
X5.6024Y-1.5354
X5.7024Y-1.5354
X5.8024Y-1.5354
X5.9024Y-1.5354
X6.0024Y-1.5354
X6.1024Y-1.5354
M30
