%TF.GenerationSoftware,KiCad,Pcbnew,8.0.5*%
%TF.CreationDate,2024-10-10T14:23:18+02:00*%
%TF.ProjectId,universal_remote,756e6976-6572-4736-916c-5f72656d6f74,rev?*%
%TF.SameCoordinates,Original*%
%TF.FileFunction,Soldermask,Top*%
%TF.FilePolarity,Negative*%
%FSLAX46Y46*%
G04 Gerber Fmt 4.6, Leading zero omitted, Abs format (unit mm)*
G04 Created by KiCad (PCBNEW 8.0.5) date 2024-10-10 14:23:18*
%MOMM*%
%LPD*%
G01*
G04 APERTURE LIST*
G04 Aperture macros list*
%AMRoundRect*
0 Rectangle with rounded corners*
0 $1 Rounding radius*
0 $2 $3 $4 $5 $6 $7 $8 $9 X,Y pos of 4 corners*
0 Add a 4 corners polygon primitive as box body*
4,1,4,$2,$3,$4,$5,$6,$7,$8,$9,$2,$3,0*
0 Add four circle primitives for the rounded corners*
1,1,$1+$1,$2,$3*
1,1,$1+$1,$4,$5*
1,1,$1+$1,$6,$7*
1,1,$1+$1,$8,$9*
0 Add four rect primitives between the rounded corners*
20,1,$1+$1,$2,$3,$4,$5,0*
20,1,$1+$1,$4,$5,$6,$7,0*
20,1,$1+$1,$6,$7,$8,$9,0*
20,1,$1+$1,$8,$9,$2,$3,0*%
G04 Aperture macros list end*
%ADD10C,1.400000*%
%ADD11O,1.400000X1.400000*%
%ADD12R,1.700000X1.700000*%
%ADD13O,1.700000X1.700000*%
%ADD14R,1.800000X1.800000*%
%ADD15C,1.800000*%
%ADD16RoundRect,0.248400X0.651600X0.651600X-0.651600X0.651600X-0.651600X-0.651600X0.651600X-0.651600X0*%
%ADD17R,1.600000X1.600000*%
%ADD18O,1.600000X1.600000*%
G04 APERTURE END LIST*
D10*
%TO.C,R4*%
X131500000Y-101200000D03*
D11*
X126420000Y-101200000D03*
%TD*%
D10*
%TO.C,R5*%
X131500000Y-98050000D03*
D11*
X126420000Y-98050000D03*
%TD*%
D10*
%TO.C,R6*%
X131500000Y-94900000D03*
D11*
X126420000Y-94900000D03*
%TD*%
D10*
%TO.C,R2*%
X131500000Y-107500000D03*
D11*
X126420000Y-107500000D03*
%TD*%
D12*
%TO.C,J1*%
X137220000Y-39000000D03*
D13*
X139760000Y-39000000D03*
X142300000Y-39000000D03*
X144840000Y-39000000D03*
X147380000Y-39000000D03*
X149920000Y-39000000D03*
X152460000Y-39000000D03*
X155000000Y-39000000D03*
%TD*%
D14*
%TO.C,SW4*%
X154500000Y-114500000D03*
D15*
X159500000Y-114500000D03*
X154500000Y-120500000D03*
X159500000Y-120500000D03*
%TD*%
D14*
%TO.C,SW2*%
X141000000Y-114500000D03*
D15*
X146000000Y-114500000D03*
X141000000Y-120500000D03*
X146000000Y-120500000D03*
%TD*%
D12*
%TO.C,J2*%
X126960000Y-147000000D03*
D13*
X129500000Y-147000000D03*
%TD*%
D14*
%TO.C,SW3*%
X141000000Y-128000000D03*
D15*
X146000000Y-128000000D03*
X141000000Y-134000000D03*
X146000000Y-134000000D03*
%TD*%
D14*
%TO.C,SW1*%
X141000000Y-101500000D03*
D15*
X146000000Y-101500000D03*
X141000000Y-107500000D03*
X146000000Y-107500000D03*
%TD*%
D10*
%TO.C,R7*%
X131500000Y-91750000D03*
D11*
X126420000Y-91750000D03*
%TD*%
D16*
%TO.C,U1*%
X121500000Y-39815000D03*
D15*
X118960000Y-39815000D03*
X116420000Y-39815000D03*
%TD*%
D17*
%TO.C,A1*%
X103760000Y-83600000D03*
D18*
X103760000Y-86140000D03*
X103760000Y-88680000D03*
X103760000Y-91220000D03*
X103760000Y-93760000D03*
X103760000Y-96300000D03*
X103760000Y-98840000D03*
X103760000Y-101380000D03*
X103760000Y-103920000D03*
X103760000Y-106460000D03*
X103760000Y-109000000D03*
X103760000Y-111540000D03*
X103760000Y-114080000D03*
X103760000Y-116620000D03*
X103760000Y-119160000D03*
X119000000Y-119160000D03*
X119000000Y-116620000D03*
X119000000Y-114080000D03*
X119000000Y-111540000D03*
X119000000Y-109000000D03*
X119000000Y-106460000D03*
X119000000Y-103920000D03*
X119000000Y-101380000D03*
X119000000Y-98840000D03*
X119000000Y-96300000D03*
X119000000Y-93760000D03*
X119000000Y-91220000D03*
X119000000Y-88680000D03*
X119000000Y-86140000D03*
X119000000Y-83600000D03*
%TD*%
D10*
%TO.C,R1*%
X106500000Y-45000000D03*
D11*
X106500000Y-50080000D03*
%TD*%
D14*
%TO.C,SW5*%
X127500000Y-114500000D03*
D15*
X132500000Y-114500000D03*
X127500000Y-120500000D03*
X132500000Y-120500000D03*
%TD*%
D14*
%TO.C,D1*%
X109500000Y-39000000D03*
D15*
X106960000Y-39000000D03*
%TD*%
D10*
%TO.C,R3*%
X131500000Y-104350000D03*
D11*
X126420000Y-104350000D03*
%TD*%
D12*
%TO.C,J3*%
X124500000Y-69500000D03*
D13*
X124500000Y-66960000D03*
X124500000Y-64420000D03*
X124500000Y-61880000D03*
%TD*%
D12*
%TO.C,BT1*%
X123725000Y-86000000D03*
D13*
X126265000Y-86000000D03*
%TD*%
D12*
%TO.C,J4*%
X124500000Y-54000000D03*
D13*
X124500000Y-51460000D03*
X124500000Y-48920000D03*
%TD*%
D14*
%TO.C,SW6*%
X127500000Y-128000000D03*
D15*
X132500000Y-128000000D03*
X127500000Y-134000000D03*
X132500000Y-134000000D03*
%TD*%
M02*
