%TF.GenerationSoftware,KiCad,Pcbnew,8.0.5*%
%TF.CreationDate,2024-10-10T14:23:18+02:00*%
%TF.ProjectId,universal_remote,756e6976-6572-4736-916c-5f72656d6f74,rev?*%
%TF.SameCoordinates,Original*%
%TF.FileFunction,Legend,Top*%
%TF.FilePolarity,Positive*%
%FSLAX46Y46*%
G04 Gerber Fmt 4.6, Leading zero omitted, Abs format (unit mm)*
G04 Created by KiCad (PCBNEW 8.0.5) date 2024-10-10 14:23:18*
%MOMM*%
%LPD*%
G01*
G04 APERTURE LIST*
%ADD10C,0.300000*%
%ADD11C,0.100000*%
%ADD12C,0.150000*%
%ADD13C,0.120000*%
G04 APERTURE END LIST*
D10*
X139340225Y-64300828D02*
X138483082Y-64300828D01*
X138911653Y-64300828D02*
X138911653Y-62800828D01*
X138911653Y-62800828D02*
X138768796Y-63015114D01*
X138768796Y-63015114D02*
X138625939Y-63157971D01*
X138625939Y-63157971D02*
X138483082Y-63229400D01*
X139983081Y-64157971D02*
X140054510Y-64229400D01*
X140054510Y-64229400D02*
X139983081Y-64300828D01*
X139983081Y-64300828D02*
X139911653Y-64229400D01*
X139911653Y-64229400D02*
X139983081Y-64157971D01*
X139983081Y-64157971D02*
X139983081Y-64300828D01*
X140911653Y-63443685D02*
X140768796Y-63372257D01*
X140768796Y-63372257D02*
X140697367Y-63300828D01*
X140697367Y-63300828D02*
X140625939Y-63157971D01*
X140625939Y-63157971D02*
X140625939Y-63086542D01*
X140625939Y-63086542D02*
X140697367Y-62943685D01*
X140697367Y-62943685D02*
X140768796Y-62872257D01*
X140768796Y-62872257D02*
X140911653Y-62800828D01*
X140911653Y-62800828D02*
X141197367Y-62800828D01*
X141197367Y-62800828D02*
X141340225Y-62872257D01*
X141340225Y-62872257D02*
X141411653Y-62943685D01*
X141411653Y-62943685D02*
X141483082Y-63086542D01*
X141483082Y-63086542D02*
X141483082Y-63157971D01*
X141483082Y-63157971D02*
X141411653Y-63300828D01*
X141411653Y-63300828D02*
X141340225Y-63372257D01*
X141340225Y-63372257D02*
X141197367Y-63443685D01*
X141197367Y-63443685D02*
X140911653Y-63443685D01*
X140911653Y-63443685D02*
X140768796Y-63515114D01*
X140768796Y-63515114D02*
X140697367Y-63586542D01*
X140697367Y-63586542D02*
X140625939Y-63729400D01*
X140625939Y-63729400D02*
X140625939Y-64015114D01*
X140625939Y-64015114D02*
X140697367Y-64157971D01*
X140697367Y-64157971D02*
X140768796Y-64229400D01*
X140768796Y-64229400D02*
X140911653Y-64300828D01*
X140911653Y-64300828D02*
X141197367Y-64300828D01*
X141197367Y-64300828D02*
X141340225Y-64229400D01*
X141340225Y-64229400D02*
X141411653Y-64157971D01*
X141411653Y-64157971D02*
X141483082Y-64015114D01*
X141483082Y-64015114D02*
X141483082Y-63729400D01*
X141483082Y-63729400D02*
X141411653Y-63586542D01*
X141411653Y-63586542D02*
X141340225Y-63515114D01*
X141340225Y-63515114D02*
X141197367Y-63443685D01*
X142054510Y-62800828D02*
X142054510Y-63086542D01*
X142625938Y-62800828D02*
X142625938Y-63086542D01*
X144197367Y-62800828D02*
X145054510Y-62800828D01*
X144625938Y-64300828D02*
X144625938Y-62800828D01*
X146054509Y-63515114D02*
X145554509Y-63515114D01*
X145554509Y-64300828D02*
X145554509Y-62800828D01*
X145554509Y-62800828D02*
X146268795Y-62800828D01*
X146625938Y-62800828D02*
X147483081Y-62800828D01*
X147054509Y-64300828D02*
X147054509Y-62800828D01*
X149054509Y-64229400D02*
X149268795Y-64300828D01*
X149268795Y-64300828D02*
X149625937Y-64300828D01*
X149625937Y-64300828D02*
X149768795Y-64229400D01*
X149768795Y-64229400D02*
X149840223Y-64157971D01*
X149840223Y-64157971D02*
X149911652Y-64015114D01*
X149911652Y-64015114D02*
X149911652Y-63872257D01*
X149911652Y-63872257D02*
X149840223Y-63729400D01*
X149840223Y-63729400D02*
X149768795Y-63657971D01*
X149768795Y-63657971D02*
X149625937Y-63586542D01*
X149625937Y-63586542D02*
X149340223Y-63515114D01*
X149340223Y-63515114D02*
X149197366Y-63443685D01*
X149197366Y-63443685D02*
X149125937Y-63372257D01*
X149125937Y-63372257D02*
X149054509Y-63229400D01*
X149054509Y-63229400D02*
X149054509Y-63086542D01*
X149054509Y-63086542D02*
X149125937Y-62943685D01*
X149125937Y-62943685D02*
X149197366Y-62872257D01*
X149197366Y-62872257D02*
X149340223Y-62800828D01*
X149340223Y-62800828D02*
X149697366Y-62800828D01*
X149697366Y-62800828D02*
X149911652Y-62872257D01*
X151411651Y-64157971D02*
X151340223Y-64229400D01*
X151340223Y-64229400D02*
X151125937Y-64300828D01*
X151125937Y-64300828D02*
X150983080Y-64300828D01*
X150983080Y-64300828D02*
X150768794Y-64229400D01*
X150768794Y-64229400D02*
X150625937Y-64086542D01*
X150625937Y-64086542D02*
X150554508Y-63943685D01*
X150554508Y-63943685D02*
X150483080Y-63657971D01*
X150483080Y-63657971D02*
X150483080Y-63443685D01*
X150483080Y-63443685D02*
X150554508Y-63157971D01*
X150554508Y-63157971D02*
X150625937Y-63015114D01*
X150625937Y-63015114D02*
X150768794Y-62872257D01*
X150768794Y-62872257D02*
X150983080Y-62800828D01*
X150983080Y-62800828D02*
X151125937Y-62800828D01*
X151125937Y-62800828D02*
X151340223Y-62872257D01*
X151340223Y-62872257D02*
X151411651Y-62943685D01*
X152911651Y-64300828D02*
X152411651Y-63586542D01*
X152054508Y-64300828D02*
X152054508Y-62800828D01*
X152054508Y-62800828D02*
X152625937Y-62800828D01*
X152625937Y-62800828D02*
X152768794Y-62872257D01*
X152768794Y-62872257D02*
X152840223Y-62943685D01*
X152840223Y-62943685D02*
X152911651Y-63086542D01*
X152911651Y-63086542D02*
X152911651Y-63300828D01*
X152911651Y-63300828D02*
X152840223Y-63443685D01*
X152840223Y-63443685D02*
X152768794Y-63515114D01*
X152768794Y-63515114D02*
X152625937Y-63586542D01*
X152625937Y-63586542D02*
X152054508Y-63586542D01*
X153554508Y-63515114D02*
X154054508Y-63515114D01*
X154268794Y-64300828D02*
X153554508Y-64300828D01*
X153554508Y-64300828D02*
X153554508Y-62800828D01*
X153554508Y-62800828D02*
X154268794Y-62800828D01*
X154911651Y-63515114D02*
X155411651Y-63515114D01*
X155625937Y-64300828D02*
X154911651Y-64300828D01*
X154911651Y-64300828D02*
X154911651Y-62800828D01*
X154911651Y-62800828D02*
X155625937Y-62800828D01*
X156268794Y-64300828D02*
X156268794Y-62800828D01*
X156268794Y-62800828D02*
X157125937Y-64300828D01*
X157125937Y-64300828D02*
X157125937Y-62800828D01*
D11*
X106637217Y-140848609D02*
X106780074Y-140896228D01*
X106780074Y-140896228D02*
X106827693Y-140943847D01*
X106827693Y-140943847D02*
X106875312Y-141039085D01*
X106875312Y-141039085D02*
X106875312Y-141181942D01*
X106875312Y-141181942D02*
X106827693Y-141277180D01*
X106827693Y-141277180D02*
X106780074Y-141324800D01*
X106780074Y-141324800D02*
X106684836Y-141372419D01*
X106684836Y-141372419D02*
X106303884Y-141372419D01*
X106303884Y-141372419D02*
X106303884Y-140372419D01*
X106303884Y-140372419D02*
X106637217Y-140372419D01*
X106637217Y-140372419D02*
X106732455Y-140420038D01*
X106732455Y-140420038D02*
X106780074Y-140467657D01*
X106780074Y-140467657D02*
X106827693Y-140562895D01*
X106827693Y-140562895D02*
X106827693Y-140658133D01*
X106827693Y-140658133D02*
X106780074Y-140753371D01*
X106780074Y-140753371D02*
X106732455Y-140800990D01*
X106732455Y-140800990D02*
X106637217Y-140848609D01*
X106637217Y-140848609D02*
X106303884Y-140848609D01*
X107732455Y-141372419D02*
X107732455Y-140848609D01*
X107732455Y-140848609D02*
X107684836Y-140753371D01*
X107684836Y-140753371D02*
X107589598Y-140705752D01*
X107589598Y-140705752D02*
X107399122Y-140705752D01*
X107399122Y-140705752D02*
X107303884Y-140753371D01*
X107732455Y-141324800D02*
X107637217Y-141372419D01*
X107637217Y-141372419D02*
X107399122Y-141372419D01*
X107399122Y-141372419D02*
X107303884Y-141324800D01*
X107303884Y-141324800D02*
X107256265Y-141229561D01*
X107256265Y-141229561D02*
X107256265Y-141134323D01*
X107256265Y-141134323D02*
X107303884Y-141039085D01*
X107303884Y-141039085D02*
X107399122Y-140991466D01*
X107399122Y-140991466D02*
X107637217Y-140991466D01*
X107637217Y-140991466D02*
X107732455Y-140943847D01*
X108065789Y-140705752D02*
X108446741Y-140705752D01*
X108208646Y-140372419D02*
X108208646Y-141229561D01*
X108208646Y-141229561D02*
X108256265Y-141324800D01*
X108256265Y-141324800D02*
X108351503Y-141372419D01*
X108351503Y-141372419D02*
X108446741Y-141372419D01*
X108637218Y-140705752D02*
X109018170Y-140705752D01*
X108780075Y-140372419D02*
X108780075Y-141229561D01*
X108780075Y-141229561D02*
X108827694Y-141324800D01*
X108827694Y-141324800D02*
X108922932Y-141372419D01*
X108922932Y-141372419D02*
X109018170Y-141372419D01*
X109732456Y-141324800D02*
X109637218Y-141372419D01*
X109637218Y-141372419D02*
X109446742Y-141372419D01*
X109446742Y-141372419D02*
X109351504Y-141324800D01*
X109351504Y-141324800D02*
X109303885Y-141229561D01*
X109303885Y-141229561D02*
X109303885Y-140848609D01*
X109303885Y-140848609D02*
X109351504Y-140753371D01*
X109351504Y-140753371D02*
X109446742Y-140705752D01*
X109446742Y-140705752D02*
X109637218Y-140705752D01*
X109637218Y-140705752D02*
X109732456Y-140753371D01*
X109732456Y-140753371D02*
X109780075Y-140848609D01*
X109780075Y-140848609D02*
X109780075Y-140943847D01*
X109780075Y-140943847D02*
X109303885Y-141039085D01*
X110208647Y-141372419D02*
X110208647Y-140705752D01*
X110208647Y-140896228D02*
X110256266Y-140800990D01*
X110256266Y-140800990D02*
X110303885Y-140753371D01*
X110303885Y-140753371D02*
X110399123Y-140705752D01*
X110399123Y-140705752D02*
X110494361Y-140705752D01*
X110732457Y-140705752D02*
X110970552Y-141372419D01*
X111208647Y-140705752D02*
X110970552Y-141372419D01*
X110970552Y-141372419D02*
X110875314Y-141610514D01*
X110875314Y-141610514D02*
X110827695Y-141658133D01*
X110827695Y-141658133D02*
X110732457Y-141705752D01*
X112922933Y-141277180D02*
X112875314Y-141324800D01*
X112875314Y-141324800D02*
X112732457Y-141372419D01*
X112732457Y-141372419D02*
X112637219Y-141372419D01*
X112637219Y-141372419D02*
X112494362Y-141324800D01*
X112494362Y-141324800D02*
X112399124Y-141229561D01*
X112399124Y-141229561D02*
X112351505Y-141134323D01*
X112351505Y-141134323D02*
X112303886Y-140943847D01*
X112303886Y-140943847D02*
X112303886Y-140800990D01*
X112303886Y-140800990D02*
X112351505Y-140610514D01*
X112351505Y-140610514D02*
X112399124Y-140515276D01*
X112399124Y-140515276D02*
X112494362Y-140420038D01*
X112494362Y-140420038D02*
X112637219Y-140372419D01*
X112637219Y-140372419D02*
X112732457Y-140372419D01*
X112732457Y-140372419D02*
X112875314Y-140420038D01*
X112875314Y-140420038D02*
X112922933Y-140467657D01*
X113351505Y-141372419D02*
X113351505Y-140372419D01*
X113780076Y-141372419D02*
X113780076Y-140848609D01*
X113780076Y-140848609D02*
X113732457Y-140753371D01*
X113732457Y-140753371D02*
X113637219Y-140705752D01*
X113637219Y-140705752D02*
X113494362Y-140705752D01*
X113494362Y-140705752D02*
X113399124Y-140753371D01*
X113399124Y-140753371D02*
X113351505Y-140800990D01*
X114684838Y-141372419D02*
X114684838Y-140848609D01*
X114684838Y-140848609D02*
X114637219Y-140753371D01*
X114637219Y-140753371D02*
X114541981Y-140705752D01*
X114541981Y-140705752D02*
X114351505Y-140705752D01*
X114351505Y-140705752D02*
X114256267Y-140753371D01*
X114684838Y-141324800D02*
X114589600Y-141372419D01*
X114589600Y-141372419D02*
X114351505Y-141372419D01*
X114351505Y-141372419D02*
X114256267Y-141324800D01*
X114256267Y-141324800D02*
X114208648Y-141229561D01*
X114208648Y-141229561D02*
X114208648Y-141134323D01*
X114208648Y-141134323D02*
X114256267Y-141039085D01*
X114256267Y-141039085D02*
X114351505Y-140991466D01*
X114351505Y-140991466D02*
X114589600Y-140991466D01*
X114589600Y-140991466D02*
X114684838Y-140943847D01*
X115161029Y-141372419D02*
X115161029Y-140705752D01*
X115161029Y-140896228D02*
X115208648Y-140800990D01*
X115208648Y-140800990D02*
X115256267Y-140753371D01*
X115256267Y-140753371D02*
X115351505Y-140705752D01*
X115351505Y-140705752D02*
X115446743Y-140705752D01*
X116208648Y-140705752D02*
X116208648Y-141515276D01*
X116208648Y-141515276D02*
X116161029Y-141610514D01*
X116161029Y-141610514D02*
X116113410Y-141658133D01*
X116113410Y-141658133D02*
X116018172Y-141705752D01*
X116018172Y-141705752D02*
X115875315Y-141705752D01*
X115875315Y-141705752D02*
X115780077Y-141658133D01*
X116208648Y-141324800D02*
X116113410Y-141372419D01*
X116113410Y-141372419D02*
X115922934Y-141372419D01*
X115922934Y-141372419D02*
X115827696Y-141324800D01*
X115827696Y-141324800D02*
X115780077Y-141277180D01*
X115780077Y-141277180D02*
X115732458Y-141181942D01*
X115732458Y-141181942D02*
X115732458Y-140896228D01*
X115732458Y-140896228D02*
X115780077Y-140800990D01*
X115780077Y-140800990D02*
X115827696Y-140753371D01*
X115827696Y-140753371D02*
X115922934Y-140705752D01*
X115922934Y-140705752D02*
X116113410Y-140705752D01*
X116113410Y-140705752D02*
X116208648Y-140753371D01*
X117065791Y-141324800D02*
X116970553Y-141372419D01*
X116970553Y-141372419D02*
X116780077Y-141372419D01*
X116780077Y-141372419D02*
X116684839Y-141324800D01*
X116684839Y-141324800D02*
X116637220Y-141229561D01*
X116637220Y-141229561D02*
X116637220Y-140848609D01*
X116637220Y-140848609D02*
X116684839Y-140753371D01*
X116684839Y-140753371D02*
X116780077Y-140705752D01*
X116780077Y-140705752D02*
X116970553Y-140705752D01*
X116970553Y-140705752D02*
X117065791Y-140753371D01*
X117065791Y-140753371D02*
X117113410Y-140848609D01*
X117113410Y-140848609D02*
X117113410Y-140943847D01*
X117113410Y-140943847D02*
X116637220Y-141039085D01*
X117541982Y-141372419D02*
X117541982Y-140705752D01*
X117541982Y-140896228D02*
X117589601Y-140800990D01*
X117589601Y-140800990D02*
X117637220Y-140753371D01*
X117637220Y-140753371D02*
X117732458Y-140705752D01*
X117732458Y-140705752D02*
X117827696Y-140705752D01*
D10*
X106840225Y-57885912D02*
X107340225Y-59385912D01*
X107340225Y-59385912D02*
X107840225Y-57885912D01*
X108554510Y-59385912D02*
X108411653Y-59314484D01*
X108411653Y-59314484D02*
X108340224Y-59243055D01*
X108340224Y-59243055D02*
X108268796Y-59100198D01*
X108268796Y-59100198D02*
X108268796Y-58671626D01*
X108268796Y-58671626D02*
X108340224Y-58528769D01*
X108340224Y-58528769D02*
X108411653Y-58457341D01*
X108411653Y-58457341D02*
X108554510Y-58385912D01*
X108554510Y-58385912D02*
X108768796Y-58385912D01*
X108768796Y-58385912D02*
X108911653Y-58457341D01*
X108911653Y-58457341D02*
X108983082Y-58528769D01*
X108983082Y-58528769D02*
X109054510Y-58671626D01*
X109054510Y-58671626D02*
X109054510Y-59100198D01*
X109054510Y-59100198D02*
X108983082Y-59243055D01*
X108983082Y-59243055D02*
X108911653Y-59314484D01*
X108911653Y-59314484D02*
X108768796Y-59385912D01*
X108768796Y-59385912D02*
X108554510Y-59385912D01*
X109911653Y-59385912D02*
X109768796Y-59314484D01*
X109768796Y-59314484D02*
X109697367Y-59171626D01*
X109697367Y-59171626D02*
X109697367Y-57885912D01*
X110268796Y-58385912D02*
X110840224Y-58385912D01*
X110483081Y-57885912D02*
X110483081Y-59171626D01*
X110483081Y-59171626D02*
X110554510Y-59314484D01*
X110554510Y-59314484D02*
X110697367Y-59385912D01*
X110697367Y-59385912D02*
X110840224Y-59385912D01*
X111983082Y-59385912D02*
X111983082Y-58600198D01*
X111983082Y-58600198D02*
X111911653Y-58457341D01*
X111911653Y-58457341D02*
X111768796Y-58385912D01*
X111768796Y-58385912D02*
X111483082Y-58385912D01*
X111483082Y-58385912D02*
X111340224Y-58457341D01*
X111983082Y-59314484D02*
X111840224Y-59385912D01*
X111840224Y-59385912D02*
X111483082Y-59385912D01*
X111483082Y-59385912D02*
X111340224Y-59314484D01*
X111340224Y-59314484D02*
X111268796Y-59171626D01*
X111268796Y-59171626D02*
X111268796Y-59028769D01*
X111268796Y-59028769D02*
X111340224Y-58885912D01*
X111340224Y-58885912D02*
X111483082Y-58814484D01*
X111483082Y-58814484D02*
X111840224Y-58814484D01*
X111840224Y-58814484D02*
X111983082Y-58743055D01*
X113340225Y-58385912D02*
X113340225Y-59600198D01*
X113340225Y-59600198D02*
X113268796Y-59743055D01*
X113268796Y-59743055D02*
X113197367Y-59814484D01*
X113197367Y-59814484D02*
X113054510Y-59885912D01*
X113054510Y-59885912D02*
X112840225Y-59885912D01*
X112840225Y-59885912D02*
X112697367Y-59814484D01*
X113340225Y-59314484D02*
X113197367Y-59385912D01*
X113197367Y-59385912D02*
X112911653Y-59385912D01*
X112911653Y-59385912D02*
X112768796Y-59314484D01*
X112768796Y-59314484D02*
X112697367Y-59243055D01*
X112697367Y-59243055D02*
X112625939Y-59100198D01*
X112625939Y-59100198D02*
X112625939Y-58671626D01*
X112625939Y-58671626D02*
X112697367Y-58528769D01*
X112697367Y-58528769D02*
X112768796Y-58457341D01*
X112768796Y-58457341D02*
X112911653Y-58385912D01*
X112911653Y-58385912D02*
X113197367Y-58385912D01*
X113197367Y-58385912D02*
X113340225Y-58457341D01*
X114625939Y-59314484D02*
X114483082Y-59385912D01*
X114483082Y-59385912D02*
X114197368Y-59385912D01*
X114197368Y-59385912D02*
X114054510Y-59314484D01*
X114054510Y-59314484D02*
X113983082Y-59171626D01*
X113983082Y-59171626D02*
X113983082Y-58600198D01*
X113983082Y-58600198D02*
X114054510Y-58457341D01*
X114054510Y-58457341D02*
X114197368Y-58385912D01*
X114197368Y-58385912D02*
X114483082Y-58385912D01*
X114483082Y-58385912D02*
X114625939Y-58457341D01*
X114625939Y-58457341D02*
X114697368Y-58600198D01*
X114697368Y-58600198D02*
X114697368Y-58743055D01*
X114697368Y-58743055D02*
X113983082Y-58885912D01*
X107054510Y-61800828D02*
X107054510Y-60300828D01*
X107054510Y-60872257D02*
X107197368Y-60800828D01*
X107197368Y-60800828D02*
X107483082Y-60800828D01*
X107483082Y-60800828D02*
X107625939Y-60872257D01*
X107625939Y-60872257D02*
X107697368Y-60943685D01*
X107697368Y-60943685D02*
X107768796Y-61086542D01*
X107768796Y-61086542D02*
X107768796Y-61515114D01*
X107768796Y-61515114D02*
X107697368Y-61657971D01*
X107697368Y-61657971D02*
X107625939Y-61729400D01*
X107625939Y-61729400D02*
X107483082Y-61800828D01*
X107483082Y-61800828D02*
X107197368Y-61800828D01*
X107197368Y-61800828D02*
X107054510Y-61729400D01*
X108625939Y-61800828D02*
X108483082Y-61729400D01*
X108483082Y-61729400D02*
X108411653Y-61657971D01*
X108411653Y-61657971D02*
X108340225Y-61515114D01*
X108340225Y-61515114D02*
X108340225Y-61086542D01*
X108340225Y-61086542D02*
X108411653Y-60943685D01*
X108411653Y-60943685D02*
X108483082Y-60872257D01*
X108483082Y-60872257D02*
X108625939Y-60800828D01*
X108625939Y-60800828D02*
X108840225Y-60800828D01*
X108840225Y-60800828D02*
X108983082Y-60872257D01*
X108983082Y-60872257D02*
X109054511Y-60943685D01*
X109054511Y-60943685D02*
X109125939Y-61086542D01*
X109125939Y-61086542D02*
X109125939Y-61515114D01*
X109125939Y-61515114D02*
X109054511Y-61657971D01*
X109054511Y-61657971D02*
X108983082Y-61729400D01*
X108983082Y-61729400D02*
X108840225Y-61800828D01*
X108840225Y-61800828D02*
X108625939Y-61800828D01*
X109983082Y-61800828D02*
X109840225Y-61729400D01*
X109840225Y-61729400D02*
X109768796Y-61657971D01*
X109768796Y-61657971D02*
X109697368Y-61515114D01*
X109697368Y-61515114D02*
X109697368Y-61086542D01*
X109697368Y-61086542D02*
X109768796Y-60943685D01*
X109768796Y-60943685D02*
X109840225Y-60872257D01*
X109840225Y-60872257D02*
X109983082Y-60800828D01*
X109983082Y-60800828D02*
X110197368Y-60800828D01*
X110197368Y-60800828D02*
X110340225Y-60872257D01*
X110340225Y-60872257D02*
X110411654Y-60943685D01*
X110411654Y-60943685D02*
X110483082Y-61086542D01*
X110483082Y-61086542D02*
X110483082Y-61515114D01*
X110483082Y-61515114D02*
X110411654Y-61657971D01*
X110411654Y-61657971D02*
X110340225Y-61729400D01*
X110340225Y-61729400D02*
X110197368Y-61800828D01*
X110197368Y-61800828D02*
X109983082Y-61800828D01*
X111054511Y-61729400D02*
X111197368Y-61800828D01*
X111197368Y-61800828D02*
X111483082Y-61800828D01*
X111483082Y-61800828D02*
X111625939Y-61729400D01*
X111625939Y-61729400D02*
X111697368Y-61586542D01*
X111697368Y-61586542D02*
X111697368Y-61515114D01*
X111697368Y-61515114D02*
X111625939Y-61372257D01*
X111625939Y-61372257D02*
X111483082Y-61300828D01*
X111483082Y-61300828D02*
X111268797Y-61300828D01*
X111268797Y-61300828D02*
X111125939Y-61229400D01*
X111125939Y-61229400D02*
X111054511Y-61086542D01*
X111054511Y-61086542D02*
X111054511Y-61015114D01*
X111054511Y-61015114D02*
X111125939Y-60872257D01*
X111125939Y-60872257D02*
X111268797Y-60800828D01*
X111268797Y-60800828D02*
X111483082Y-60800828D01*
X111483082Y-60800828D02*
X111625939Y-60872257D01*
X112125940Y-60800828D02*
X112697368Y-60800828D01*
X112340225Y-60300828D02*
X112340225Y-61586542D01*
X112340225Y-61586542D02*
X112411654Y-61729400D01*
X112411654Y-61729400D02*
X112554511Y-61800828D01*
X112554511Y-61800828D02*
X112697368Y-61800828D01*
X113768797Y-61729400D02*
X113625940Y-61800828D01*
X113625940Y-61800828D02*
X113340226Y-61800828D01*
X113340226Y-61800828D02*
X113197368Y-61729400D01*
X113197368Y-61729400D02*
X113125940Y-61586542D01*
X113125940Y-61586542D02*
X113125940Y-61015114D01*
X113125940Y-61015114D02*
X113197368Y-60872257D01*
X113197368Y-60872257D02*
X113340226Y-60800828D01*
X113340226Y-60800828D02*
X113625940Y-60800828D01*
X113625940Y-60800828D02*
X113768797Y-60872257D01*
X113768797Y-60872257D02*
X113840226Y-61015114D01*
X113840226Y-61015114D02*
X113840226Y-61157971D01*
X113840226Y-61157971D02*
X113125940Y-61300828D01*
X114483082Y-61800828D02*
X114483082Y-60800828D01*
X114483082Y-61086542D02*
X114554511Y-60943685D01*
X114554511Y-60943685D02*
X114625940Y-60872257D01*
X114625940Y-60872257D02*
X114768797Y-60800828D01*
X114768797Y-60800828D02*
X114911654Y-60800828D01*
D12*
X133904819Y-39333333D02*
X134619104Y-39333333D01*
X134619104Y-39333333D02*
X134761961Y-39380952D01*
X134761961Y-39380952D02*
X134857200Y-39476190D01*
X134857200Y-39476190D02*
X134904819Y-39619047D01*
X134904819Y-39619047D02*
X134904819Y-39714285D01*
X134904819Y-38333333D02*
X134904819Y-38904761D01*
X134904819Y-38619047D02*
X133904819Y-38619047D01*
X133904819Y-38619047D02*
X134047676Y-38714285D01*
X134047676Y-38714285D02*
X134142914Y-38809523D01*
X134142914Y-38809523D02*
X134190533Y-38904761D01*
X155666667Y-112157200D02*
X155809524Y-112204819D01*
X155809524Y-112204819D02*
X156047619Y-112204819D01*
X156047619Y-112204819D02*
X156142857Y-112157200D01*
X156142857Y-112157200D02*
X156190476Y-112109580D01*
X156190476Y-112109580D02*
X156238095Y-112014342D01*
X156238095Y-112014342D02*
X156238095Y-111919104D01*
X156238095Y-111919104D02*
X156190476Y-111823866D01*
X156190476Y-111823866D02*
X156142857Y-111776247D01*
X156142857Y-111776247D02*
X156047619Y-111728628D01*
X156047619Y-111728628D02*
X155857143Y-111681009D01*
X155857143Y-111681009D02*
X155761905Y-111633390D01*
X155761905Y-111633390D02*
X155714286Y-111585771D01*
X155714286Y-111585771D02*
X155666667Y-111490533D01*
X155666667Y-111490533D02*
X155666667Y-111395295D01*
X155666667Y-111395295D02*
X155714286Y-111300057D01*
X155714286Y-111300057D02*
X155761905Y-111252438D01*
X155761905Y-111252438D02*
X155857143Y-111204819D01*
X155857143Y-111204819D02*
X156095238Y-111204819D01*
X156095238Y-111204819D02*
X156238095Y-111252438D01*
X156571429Y-111204819D02*
X156809524Y-112204819D01*
X156809524Y-112204819D02*
X157000000Y-111490533D01*
X157000000Y-111490533D02*
X157190476Y-112204819D01*
X157190476Y-112204819D02*
X157428572Y-111204819D01*
X158238095Y-111538152D02*
X158238095Y-112204819D01*
X158000000Y-111157200D02*
X157761905Y-111871485D01*
X157761905Y-111871485D02*
X158380952Y-111871485D01*
X142166667Y-112157200D02*
X142309524Y-112204819D01*
X142309524Y-112204819D02*
X142547619Y-112204819D01*
X142547619Y-112204819D02*
X142642857Y-112157200D01*
X142642857Y-112157200D02*
X142690476Y-112109580D01*
X142690476Y-112109580D02*
X142738095Y-112014342D01*
X142738095Y-112014342D02*
X142738095Y-111919104D01*
X142738095Y-111919104D02*
X142690476Y-111823866D01*
X142690476Y-111823866D02*
X142642857Y-111776247D01*
X142642857Y-111776247D02*
X142547619Y-111728628D01*
X142547619Y-111728628D02*
X142357143Y-111681009D01*
X142357143Y-111681009D02*
X142261905Y-111633390D01*
X142261905Y-111633390D02*
X142214286Y-111585771D01*
X142214286Y-111585771D02*
X142166667Y-111490533D01*
X142166667Y-111490533D02*
X142166667Y-111395295D01*
X142166667Y-111395295D02*
X142214286Y-111300057D01*
X142214286Y-111300057D02*
X142261905Y-111252438D01*
X142261905Y-111252438D02*
X142357143Y-111204819D01*
X142357143Y-111204819D02*
X142595238Y-111204819D01*
X142595238Y-111204819D02*
X142738095Y-111252438D01*
X143071429Y-111204819D02*
X143309524Y-112204819D01*
X143309524Y-112204819D02*
X143500000Y-111490533D01*
X143500000Y-111490533D02*
X143690476Y-112204819D01*
X143690476Y-112204819D02*
X143928572Y-111204819D01*
X144261905Y-111300057D02*
X144309524Y-111252438D01*
X144309524Y-111252438D02*
X144404762Y-111204819D01*
X144404762Y-111204819D02*
X144642857Y-111204819D01*
X144642857Y-111204819D02*
X144738095Y-111252438D01*
X144738095Y-111252438D02*
X144785714Y-111300057D01*
X144785714Y-111300057D02*
X144833333Y-111395295D01*
X144833333Y-111395295D02*
X144833333Y-111490533D01*
X144833333Y-111490533D02*
X144785714Y-111633390D01*
X144785714Y-111633390D02*
X144214286Y-112204819D01*
X144214286Y-112204819D02*
X144833333Y-112204819D01*
X124084819Y-147333333D02*
X124799104Y-147333333D01*
X124799104Y-147333333D02*
X124941961Y-147380952D01*
X124941961Y-147380952D02*
X125037200Y-147476190D01*
X125037200Y-147476190D02*
X125084819Y-147619047D01*
X125084819Y-147619047D02*
X125084819Y-147714285D01*
X124180057Y-146904761D02*
X124132438Y-146857142D01*
X124132438Y-146857142D02*
X124084819Y-146761904D01*
X124084819Y-146761904D02*
X124084819Y-146523809D01*
X124084819Y-146523809D02*
X124132438Y-146428571D01*
X124132438Y-146428571D02*
X124180057Y-146380952D01*
X124180057Y-146380952D02*
X124275295Y-146333333D01*
X124275295Y-146333333D02*
X124370533Y-146333333D01*
X124370533Y-146333333D02*
X124513390Y-146380952D01*
X124513390Y-146380952D02*
X125084819Y-146952380D01*
X125084819Y-146952380D02*
X125084819Y-146333333D01*
X142166667Y-125657200D02*
X142309524Y-125704819D01*
X142309524Y-125704819D02*
X142547619Y-125704819D01*
X142547619Y-125704819D02*
X142642857Y-125657200D01*
X142642857Y-125657200D02*
X142690476Y-125609580D01*
X142690476Y-125609580D02*
X142738095Y-125514342D01*
X142738095Y-125514342D02*
X142738095Y-125419104D01*
X142738095Y-125419104D02*
X142690476Y-125323866D01*
X142690476Y-125323866D02*
X142642857Y-125276247D01*
X142642857Y-125276247D02*
X142547619Y-125228628D01*
X142547619Y-125228628D02*
X142357143Y-125181009D01*
X142357143Y-125181009D02*
X142261905Y-125133390D01*
X142261905Y-125133390D02*
X142214286Y-125085771D01*
X142214286Y-125085771D02*
X142166667Y-124990533D01*
X142166667Y-124990533D02*
X142166667Y-124895295D01*
X142166667Y-124895295D02*
X142214286Y-124800057D01*
X142214286Y-124800057D02*
X142261905Y-124752438D01*
X142261905Y-124752438D02*
X142357143Y-124704819D01*
X142357143Y-124704819D02*
X142595238Y-124704819D01*
X142595238Y-124704819D02*
X142738095Y-124752438D01*
X143071429Y-124704819D02*
X143309524Y-125704819D01*
X143309524Y-125704819D02*
X143500000Y-124990533D01*
X143500000Y-124990533D02*
X143690476Y-125704819D01*
X143690476Y-125704819D02*
X143928572Y-124704819D01*
X144214286Y-124704819D02*
X144833333Y-124704819D01*
X144833333Y-124704819D02*
X144500000Y-125085771D01*
X144500000Y-125085771D02*
X144642857Y-125085771D01*
X144642857Y-125085771D02*
X144738095Y-125133390D01*
X144738095Y-125133390D02*
X144785714Y-125181009D01*
X144785714Y-125181009D02*
X144833333Y-125276247D01*
X144833333Y-125276247D02*
X144833333Y-125514342D01*
X144833333Y-125514342D02*
X144785714Y-125609580D01*
X144785714Y-125609580D02*
X144738095Y-125657200D01*
X144738095Y-125657200D02*
X144642857Y-125704819D01*
X144642857Y-125704819D02*
X144357143Y-125704819D01*
X144357143Y-125704819D02*
X144261905Y-125657200D01*
X144261905Y-125657200D02*
X144214286Y-125609580D01*
X142166667Y-99157200D02*
X142309524Y-99204819D01*
X142309524Y-99204819D02*
X142547619Y-99204819D01*
X142547619Y-99204819D02*
X142642857Y-99157200D01*
X142642857Y-99157200D02*
X142690476Y-99109580D01*
X142690476Y-99109580D02*
X142738095Y-99014342D01*
X142738095Y-99014342D02*
X142738095Y-98919104D01*
X142738095Y-98919104D02*
X142690476Y-98823866D01*
X142690476Y-98823866D02*
X142642857Y-98776247D01*
X142642857Y-98776247D02*
X142547619Y-98728628D01*
X142547619Y-98728628D02*
X142357143Y-98681009D01*
X142357143Y-98681009D02*
X142261905Y-98633390D01*
X142261905Y-98633390D02*
X142214286Y-98585771D01*
X142214286Y-98585771D02*
X142166667Y-98490533D01*
X142166667Y-98490533D02*
X142166667Y-98395295D01*
X142166667Y-98395295D02*
X142214286Y-98300057D01*
X142214286Y-98300057D02*
X142261905Y-98252438D01*
X142261905Y-98252438D02*
X142357143Y-98204819D01*
X142357143Y-98204819D02*
X142595238Y-98204819D01*
X142595238Y-98204819D02*
X142738095Y-98252438D01*
X143071429Y-98204819D02*
X143309524Y-99204819D01*
X143309524Y-99204819D02*
X143500000Y-98490533D01*
X143500000Y-98490533D02*
X143690476Y-99204819D01*
X143690476Y-99204819D02*
X143928572Y-98204819D01*
X144833333Y-99204819D02*
X144261905Y-99204819D01*
X144547619Y-99204819D02*
X144547619Y-98204819D01*
X144547619Y-98204819D02*
X144452381Y-98347676D01*
X144452381Y-98347676D02*
X144357143Y-98442914D01*
X144357143Y-98442914D02*
X144261905Y-98490533D01*
X110118095Y-118614819D02*
X110118095Y-119424342D01*
X110118095Y-119424342D02*
X110165714Y-119519580D01*
X110165714Y-119519580D02*
X110213333Y-119567200D01*
X110213333Y-119567200D02*
X110308571Y-119614819D01*
X110308571Y-119614819D02*
X110499047Y-119614819D01*
X110499047Y-119614819D02*
X110594285Y-119567200D01*
X110594285Y-119567200D02*
X110641904Y-119519580D01*
X110641904Y-119519580D02*
X110689523Y-119424342D01*
X110689523Y-119424342D02*
X110689523Y-118614819D01*
X111118095Y-119567200D02*
X111260952Y-119614819D01*
X111260952Y-119614819D02*
X111499047Y-119614819D01*
X111499047Y-119614819D02*
X111594285Y-119567200D01*
X111594285Y-119567200D02*
X111641904Y-119519580D01*
X111641904Y-119519580D02*
X111689523Y-119424342D01*
X111689523Y-119424342D02*
X111689523Y-119329104D01*
X111689523Y-119329104D02*
X111641904Y-119233866D01*
X111641904Y-119233866D02*
X111594285Y-119186247D01*
X111594285Y-119186247D02*
X111499047Y-119138628D01*
X111499047Y-119138628D02*
X111308571Y-119091009D01*
X111308571Y-119091009D02*
X111213333Y-119043390D01*
X111213333Y-119043390D02*
X111165714Y-118995771D01*
X111165714Y-118995771D02*
X111118095Y-118900533D01*
X111118095Y-118900533D02*
X111118095Y-118805295D01*
X111118095Y-118805295D02*
X111165714Y-118710057D01*
X111165714Y-118710057D02*
X111213333Y-118662438D01*
X111213333Y-118662438D02*
X111308571Y-118614819D01*
X111308571Y-118614819D02*
X111546666Y-118614819D01*
X111546666Y-118614819D02*
X111689523Y-118662438D01*
X112451428Y-119091009D02*
X112594285Y-119138628D01*
X112594285Y-119138628D02*
X112641904Y-119186247D01*
X112641904Y-119186247D02*
X112689523Y-119281485D01*
X112689523Y-119281485D02*
X112689523Y-119424342D01*
X112689523Y-119424342D02*
X112641904Y-119519580D01*
X112641904Y-119519580D02*
X112594285Y-119567200D01*
X112594285Y-119567200D02*
X112499047Y-119614819D01*
X112499047Y-119614819D02*
X112118095Y-119614819D01*
X112118095Y-119614819D02*
X112118095Y-118614819D01*
X112118095Y-118614819D02*
X112451428Y-118614819D01*
X112451428Y-118614819D02*
X112546666Y-118662438D01*
X112546666Y-118662438D02*
X112594285Y-118710057D01*
X112594285Y-118710057D02*
X112641904Y-118805295D01*
X112641904Y-118805295D02*
X112641904Y-118900533D01*
X112641904Y-118900533D02*
X112594285Y-118995771D01*
X112594285Y-118995771D02*
X112546666Y-119043390D01*
X112546666Y-119043390D02*
X112451428Y-119091009D01*
X112451428Y-119091009D02*
X112118095Y-119091009D01*
X108874819Y-47706666D02*
X108398628Y-48039999D01*
X108874819Y-48278094D02*
X107874819Y-48278094D01*
X107874819Y-48278094D02*
X107874819Y-47897142D01*
X107874819Y-47897142D02*
X107922438Y-47801904D01*
X107922438Y-47801904D02*
X107970057Y-47754285D01*
X107970057Y-47754285D02*
X108065295Y-47706666D01*
X108065295Y-47706666D02*
X108208152Y-47706666D01*
X108208152Y-47706666D02*
X108303390Y-47754285D01*
X108303390Y-47754285D02*
X108351009Y-47801904D01*
X108351009Y-47801904D02*
X108398628Y-47897142D01*
X108398628Y-47897142D02*
X108398628Y-48278094D01*
X108874819Y-46754285D02*
X108874819Y-47325713D01*
X108874819Y-47039999D02*
X107874819Y-47039999D01*
X107874819Y-47039999D02*
X108017676Y-47135237D01*
X108017676Y-47135237D02*
X108112914Y-47230475D01*
X108112914Y-47230475D02*
X108160533Y-47325713D01*
X128666667Y-112157200D02*
X128809524Y-112204819D01*
X128809524Y-112204819D02*
X129047619Y-112204819D01*
X129047619Y-112204819D02*
X129142857Y-112157200D01*
X129142857Y-112157200D02*
X129190476Y-112109580D01*
X129190476Y-112109580D02*
X129238095Y-112014342D01*
X129238095Y-112014342D02*
X129238095Y-111919104D01*
X129238095Y-111919104D02*
X129190476Y-111823866D01*
X129190476Y-111823866D02*
X129142857Y-111776247D01*
X129142857Y-111776247D02*
X129047619Y-111728628D01*
X129047619Y-111728628D02*
X128857143Y-111681009D01*
X128857143Y-111681009D02*
X128761905Y-111633390D01*
X128761905Y-111633390D02*
X128714286Y-111585771D01*
X128714286Y-111585771D02*
X128666667Y-111490533D01*
X128666667Y-111490533D02*
X128666667Y-111395295D01*
X128666667Y-111395295D02*
X128714286Y-111300057D01*
X128714286Y-111300057D02*
X128761905Y-111252438D01*
X128761905Y-111252438D02*
X128857143Y-111204819D01*
X128857143Y-111204819D02*
X129095238Y-111204819D01*
X129095238Y-111204819D02*
X129238095Y-111252438D01*
X129571429Y-111204819D02*
X129809524Y-112204819D01*
X129809524Y-112204819D02*
X130000000Y-111490533D01*
X130000000Y-111490533D02*
X130190476Y-112204819D01*
X130190476Y-112204819D02*
X130428572Y-111204819D01*
X131285714Y-111204819D02*
X130809524Y-111204819D01*
X130809524Y-111204819D02*
X130761905Y-111681009D01*
X130761905Y-111681009D02*
X130809524Y-111633390D01*
X130809524Y-111633390D02*
X130904762Y-111585771D01*
X130904762Y-111585771D02*
X131142857Y-111585771D01*
X131142857Y-111585771D02*
X131238095Y-111633390D01*
X131238095Y-111633390D02*
X131285714Y-111681009D01*
X131285714Y-111681009D02*
X131333333Y-111776247D01*
X131333333Y-111776247D02*
X131333333Y-112014342D01*
X131333333Y-112014342D02*
X131285714Y-112109580D01*
X131285714Y-112109580D02*
X131238095Y-112157200D01*
X131238095Y-112157200D02*
X131142857Y-112204819D01*
X131142857Y-112204819D02*
X130904762Y-112204819D01*
X130904762Y-112204819D02*
X130809524Y-112157200D01*
X130809524Y-112157200D02*
X130761905Y-112109580D01*
X107491905Y-43414819D02*
X107491905Y-42414819D01*
X107491905Y-42414819D02*
X107730000Y-42414819D01*
X107730000Y-42414819D02*
X107872857Y-42462438D01*
X107872857Y-42462438D02*
X107968095Y-42557676D01*
X107968095Y-42557676D02*
X108015714Y-42652914D01*
X108015714Y-42652914D02*
X108063333Y-42843390D01*
X108063333Y-42843390D02*
X108063333Y-42986247D01*
X108063333Y-42986247D02*
X108015714Y-43176723D01*
X108015714Y-43176723D02*
X107968095Y-43271961D01*
X107968095Y-43271961D02*
X107872857Y-43367200D01*
X107872857Y-43367200D02*
X107730000Y-43414819D01*
X107730000Y-43414819D02*
X107491905Y-43414819D01*
X109015714Y-43414819D02*
X108444286Y-43414819D01*
X108730000Y-43414819D02*
X108730000Y-42414819D01*
X108730000Y-42414819D02*
X108634762Y-42557676D01*
X108634762Y-42557676D02*
X108539524Y-42652914D01*
X108539524Y-42652914D02*
X108444286Y-42700533D01*
X125666666Y-71784819D02*
X125666666Y-72499104D01*
X125666666Y-72499104D02*
X125619047Y-72641961D01*
X125619047Y-72641961D02*
X125523809Y-72737200D01*
X125523809Y-72737200D02*
X125380952Y-72784819D01*
X125380952Y-72784819D02*
X125285714Y-72784819D01*
X126047619Y-71784819D02*
X126666666Y-71784819D01*
X126666666Y-71784819D02*
X126333333Y-72165771D01*
X126333333Y-72165771D02*
X126476190Y-72165771D01*
X126476190Y-72165771D02*
X126571428Y-72213390D01*
X126571428Y-72213390D02*
X126619047Y-72261009D01*
X126619047Y-72261009D02*
X126666666Y-72356247D01*
X126666666Y-72356247D02*
X126666666Y-72594342D01*
X126666666Y-72594342D02*
X126619047Y-72689580D01*
X126619047Y-72689580D02*
X126571428Y-72737200D01*
X126571428Y-72737200D02*
X126476190Y-72784819D01*
X126476190Y-72784819D02*
X126190476Y-72784819D01*
X126190476Y-72784819D02*
X126095238Y-72737200D01*
X126095238Y-72737200D02*
X126047619Y-72689580D01*
X121386009Y-82400714D02*
X121433628Y-82257857D01*
X121433628Y-82257857D02*
X121481247Y-82210238D01*
X121481247Y-82210238D02*
X121576485Y-82162619D01*
X121576485Y-82162619D02*
X121719342Y-82162619D01*
X121719342Y-82162619D02*
X121814580Y-82210238D01*
X121814580Y-82210238D02*
X121862200Y-82257857D01*
X121862200Y-82257857D02*
X121909819Y-82353095D01*
X121909819Y-82353095D02*
X121909819Y-82734047D01*
X121909819Y-82734047D02*
X120909819Y-82734047D01*
X120909819Y-82734047D02*
X120909819Y-82400714D01*
X120909819Y-82400714D02*
X120957438Y-82305476D01*
X120957438Y-82305476D02*
X121005057Y-82257857D01*
X121005057Y-82257857D02*
X121100295Y-82210238D01*
X121100295Y-82210238D02*
X121195533Y-82210238D01*
X121195533Y-82210238D02*
X121290771Y-82257857D01*
X121290771Y-82257857D02*
X121338390Y-82305476D01*
X121338390Y-82305476D02*
X121386009Y-82400714D01*
X121386009Y-82400714D02*
X121386009Y-82734047D01*
X120909819Y-81876904D02*
X120909819Y-81305476D01*
X121909819Y-81591190D02*
X120909819Y-81591190D01*
X121909819Y-80448333D02*
X121909819Y-81019761D01*
X121909819Y-80734047D02*
X120909819Y-80734047D01*
X120909819Y-80734047D02*
X121052676Y-80829285D01*
X121052676Y-80829285D02*
X121147914Y-80924523D01*
X121147914Y-80924523D02*
X121195533Y-81019761D01*
X124166666Y-55784819D02*
X124166666Y-56499104D01*
X124166666Y-56499104D02*
X124119047Y-56641961D01*
X124119047Y-56641961D02*
X124023809Y-56737200D01*
X124023809Y-56737200D02*
X123880952Y-56784819D01*
X123880952Y-56784819D02*
X123785714Y-56784819D01*
X125071428Y-56118152D02*
X125071428Y-56784819D01*
X124833333Y-55737200D02*
X124595238Y-56451485D01*
X124595238Y-56451485D02*
X125214285Y-56451485D01*
X128666667Y-125657200D02*
X128809524Y-125704819D01*
X128809524Y-125704819D02*
X129047619Y-125704819D01*
X129047619Y-125704819D02*
X129142857Y-125657200D01*
X129142857Y-125657200D02*
X129190476Y-125609580D01*
X129190476Y-125609580D02*
X129238095Y-125514342D01*
X129238095Y-125514342D02*
X129238095Y-125419104D01*
X129238095Y-125419104D02*
X129190476Y-125323866D01*
X129190476Y-125323866D02*
X129142857Y-125276247D01*
X129142857Y-125276247D02*
X129047619Y-125228628D01*
X129047619Y-125228628D02*
X128857143Y-125181009D01*
X128857143Y-125181009D02*
X128761905Y-125133390D01*
X128761905Y-125133390D02*
X128714286Y-125085771D01*
X128714286Y-125085771D02*
X128666667Y-124990533D01*
X128666667Y-124990533D02*
X128666667Y-124895295D01*
X128666667Y-124895295D02*
X128714286Y-124800057D01*
X128714286Y-124800057D02*
X128761905Y-124752438D01*
X128761905Y-124752438D02*
X128857143Y-124704819D01*
X128857143Y-124704819D02*
X129095238Y-124704819D01*
X129095238Y-124704819D02*
X129238095Y-124752438D01*
X129571429Y-124704819D02*
X129809524Y-125704819D01*
X129809524Y-125704819D02*
X130000000Y-124990533D01*
X130000000Y-124990533D02*
X130190476Y-125704819D01*
X130190476Y-125704819D02*
X130428572Y-124704819D01*
X131238095Y-124704819D02*
X131047619Y-124704819D01*
X131047619Y-124704819D02*
X130952381Y-124752438D01*
X130952381Y-124752438D02*
X130904762Y-124800057D01*
X130904762Y-124800057D02*
X130809524Y-124942914D01*
X130809524Y-124942914D02*
X130761905Y-125133390D01*
X130761905Y-125133390D02*
X130761905Y-125514342D01*
X130761905Y-125514342D02*
X130809524Y-125609580D01*
X130809524Y-125609580D02*
X130857143Y-125657200D01*
X130857143Y-125657200D02*
X130952381Y-125704819D01*
X130952381Y-125704819D02*
X131142857Y-125704819D01*
X131142857Y-125704819D02*
X131238095Y-125657200D01*
X131238095Y-125657200D02*
X131285714Y-125609580D01*
X131285714Y-125609580D02*
X131333333Y-125514342D01*
X131333333Y-125514342D02*
X131333333Y-125276247D01*
X131333333Y-125276247D02*
X131285714Y-125181009D01*
X131285714Y-125181009D02*
X131238095Y-125133390D01*
X131238095Y-125133390D02*
X131142857Y-125085771D01*
X131142857Y-125085771D02*
X130952381Y-125085771D01*
X130952381Y-125085771D02*
X130857143Y-125133390D01*
X130857143Y-125133390D02*
X130809524Y-125181009D01*
X130809524Y-125181009D02*
X130761905Y-125276247D01*
D13*
%TO.C,R4*%
X130880000Y-100280000D02*
X127040000Y-100280000D01*
X130880000Y-102120000D02*
X127040000Y-102120000D01*
%TO.C,R5*%
X130880000Y-97130000D02*
X127040000Y-97130000D01*
X130880000Y-98970000D02*
X127040000Y-98970000D01*
%TO.C,R6*%
X130880000Y-93980000D02*
X127040000Y-93980000D01*
X130880000Y-95820000D02*
X127040000Y-95820000D01*
%TO.C,R2*%
X130880000Y-106580000D02*
X127040000Y-106580000D01*
X130880000Y-108420000D02*
X127040000Y-108420000D01*
%TO.C,J1*%
X135890000Y-37670000D02*
X137220000Y-37670000D01*
X135890000Y-39000000D02*
X135890000Y-37670000D01*
X138490000Y-37670000D02*
X156330000Y-37670000D01*
X138490000Y-40330000D02*
X138490000Y-37670000D01*
X138490000Y-40330000D02*
X156330000Y-40330000D01*
X156330000Y-40330000D02*
X156330000Y-37670000D01*
%TO.C,SW4*%
X151730000Y-113530000D02*
X151730000Y-112530000D01*
X151980000Y-122220000D02*
X151980000Y-112780000D01*
X152730000Y-112530000D02*
X151730000Y-112530000D01*
X155300000Y-115800000D02*
X155300000Y-119100000D01*
X158600000Y-115800000D02*
X155300000Y-115800000D01*
X158600000Y-115800000D02*
X158600000Y-119100000D01*
X158600000Y-119100000D02*
X155300000Y-119100000D01*
X162020000Y-112780000D02*
X151980000Y-112780000D01*
X162020000Y-122220000D02*
X151980000Y-122220000D01*
X162020000Y-122220000D02*
X162020000Y-112780000D01*
%TO.C,SW2*%
X138230000Y-113530000D02*
X138230000Y-112530000D01*
X138480000Y-122220000D02*
X138480000Y-112780000D01*
X139230000Y-112530000D02*
X138230000Y-112530000D01*
X141800000Y-115800000D02*
X141800000Y-119100000D01*
X145100000Y-115800000D02*
X141800000Y-115800000D01*
X145100000Y-115800000D02*
X145100000Y-119100000D01*
X145100000Y-119100000D02*
X141800000Y-119100000D01*
X148520000Y-112780000D02*
X138480000Y-112780000D01*
X148520000Y-122220000D02*
X138480000Y-122220000D01*
X148520000Y-122220000D02*
X148520000Y-112780000D01*
%TO.C,J2*%
X125630000Y-148330000D02*
X125630000Y-147000000D01*
X126960000Y-148330000D02*
X125630000Y-148330000D01*
X128230000Y-145670000D02*
X130830000Y-145670000D01*
X128230000Y-148330000D02*
X128230000Y-145670000D01*
X128230000Y-148330000D02*
X130830000Y-148330000D01*
X130830000Y-148330000D02*
X130830000Y-145670000D01*
%TO.C,SW3*%
X138230000Y-127030000D02*
X138230000Y-126030000D01*
X138480000Y-135720000D02*
X138480000Y-126280000D01*
X139230000Y-126030000D02*
X138230000Y-126030000D01*
X141800000Y-129300000D02*
X141800000Y-132600000D01*
X145100000Y-129300000D02*
X141800000Y-129300000D01*
X145100000Y-129300000D02*
X145100000Y-132600000D01*
X145100000Y-132600000D02*
X141800000Y-132600000D01*
X148520000Y-126280000D02*
X138480000Y-126280000D01*
X148520000Y-135720000D02*
X138480000Y-135720000D01*
X148520000Y-135720000D02*
X148520000Y-126280000D01*
%TO.C,SW1*%
X138230000Y-100530000D02*
X138230000Y-99530000D01*
X138480000Y-109220000D02*
X138480000Y-99780000D01*
X139230000Y-99530000D02*
X138230000Y-99530000D01*
X141800000Y-102800000D02*
X141800000Y-106100000D01*
X145100000Y-102800000D02*
X141800000Y-102800000D01*
X145100000Y-102800000D02*
X145100000Y-106100000D01*
X145100000Y-106100000D02*
X141800000Y-106100000D01*
X148520000Y-99780000D02*
X138480000Y-99780000D01*
X148520000Y-109220000D02*
X138480000Y-109220000D01*
X148520000Y-109220000D02*
X148520000Y-99780000D01*
%TO.C,R7*%
X130880000Y-90830000D02*
X127040000Y-90830000D01*
X130880000Y-92670000D02*
X127040000Y-92670000D01*
%TO.C,U1*%
X115800000Y-37515000D02*
X115800000Y-38715000D01*
X115800000Y-37515000D02*
X116260000Y-37515000D01*
X115880000Y-41175000D02*
X118960000Y-41175000D01*
X121460000Y-37515000D02*
X121680000Y-37515000D01*
X116260000Y-37515000D02*
G75*
G02*
X121460000Y-37515000I2600000J-1100000D01*
G01*
%TO.C,A1*%
X102360000Y-79660000D02*
X102360000Y-82330000D01*
X102360000Y-84870000D02*
X102360000Y-123100000D01*
X102360000Y-123100000D02*
X107440000Y-123100000D01*
X105030000Y-82330000D02*
X102360000Y-82330000D01*
X105030000Y-84870000D02*
X102360000Y-84870000D01*
X105030000Y-84870000D02*
X105030000Y-82330000D01*
X105030000Y-84870000D02*
X105030000Y-120430000D01*
X105030000Y-120430000D02*
X102360000Y-120430000D01*
X107440000Y-115220000D02*
X115320000Y-115220000D01*
X107440000Y-125640000D02*
X107440000Y-115220000D01*
X115320000Y-115220000D02*
X115320000Y-125640000D01*
X115320000Y-125640000D02*
X107440000Y-125640000D01*
X117730000Y-82330000D02*
X117730000Y-120430000D01*
X117730000Y-82330000D02*
X120400000Y-82330000D01*
X117730000Y-120430000D02*
X120400000Y-120430000D01*
X120400000Y-79660000D02*
X102360000Y-79660000D01*
X120400000Y-123100000D02*
X115320000Y-123100000D01*
X120400000Y-123100000D02*
X120400000Y-79660000D01*
%TO.C,R1*%
X105580000Y-45620000D02*
X105580000Y-49460000D01*
X107420000Y-45620000D02*
X107420000Y-49460000D01*
%TO.C,SW5*%
X124730000Y-113530000D02*
X124730000Y-112530000D01*
X124980000Y-122220000D02*
X124980000Y-112780000D01*
X125730000Y-112530000D02*
X124730000Y-112530000D01*
X128300000Y-115800000D02*
X128300000Y-119100000D01*
X131600000Y-115800000D02*
X128300000Y-115800000D01*
X131600000Y-115800000D02*
X131600000Y-119100000D01*
X131600000Y-119100000D02*
X128300000Y-119100000D01*
X135020000Y-112780000D02*
X124980000Y-112780000D01*
X135020000Y-122220000D02*
X124980000Y-122220000D01*
X135020000Y-122220000D02*
X135020000Y-112780000D01*
%TO.C,D1*%
X110790000Y-40545000D02*
X110790000Y-37455000D01*
X105240000Y-39000462D02*
G75*
G02*
X110790000Y-37455170I2990000J462D01*
G01*
X110790000Y-40544830D02*
G75*
G02*
X105240000Y-38999538I-2560000J1544830D01*
G01*
X110730000Y-39000000D02*
G75*
G02*
X105730000Y-39000000I-2500000J0D01*
G01*
X105730000Y-39000000D02*
G75*
G02*
X110730000Y-39000000I2500000J0D01*
G01*
%TO.C,R3*%
X130880000Y-103430000D02*
X127040000Y-103430000D01*
X130880000Y-105270000D02*
X127040000Y-105270000D01*
%TO.C,J3*%
X123170000Y-68230000D02*
X123170000Y-60550000D01*
X125830000Y-60550000D02*
X123170000Y-60550000D01*
X125830000Y-68230000D02*
X123170000Y-68230000D01*
X125830000Y-68230000D02*
X125830000Y-60550000D01*
X125830000Y-69500000D02*
X125830000Y-70830000D01*
X125830000Y-70830000D02*
X124500000Y-70830000D01*
%TO.C,BT1*%
X122395000Y-81900000D02*
X122395000Y-84560000D01*
X122395000Y-84560000D02*
X127595000Y-84560000D01*
X122455000Y-87270000D02*
X122455000Y-86000000D01*
X123345000Y-75900000D02*
X124105000Y-75900000D01*
X123345000Y-81900000D02*
X123345000Y-75900000D01*
X123345000Y-84890000D02*
X123345000Y-84560000D01*
X123405000Y-81900000D02*
X123405000Y-75900000D01*
X123525000Y-81900000D02*
X123525000Y-75900000D01*
X123645000Y-81900000D02*
X123645000Y-75900000D01*
X123725000Y-87270000D02*
X122455000Y-87270000D01*
X123765000Y-81900000D02*
X123765000Y-75900000D01*
X123885000Y-81900000D02*
X123885000Y-75900000D01*
X124005000Y-81900000D02*
X124005000Y-75900000D01*
X124105000Y-75900000D02*
X124105000Y-81900000D01*
X124105000Y-84890000D02*
X124105000Y-84560000D01*
X124995000Y-84560000D02*
X124995000Y-81900000D01*
X125885000Y-75900000D02*
X126645000Y-75900000D01*
X125885000Y-81900000D02*
X125885000Y-75900000D01*
X125885000Y-84957071D02*
X125885000Y-84560000D01*
X126645000Y-75900000D02*
X126645000Y-81900000D01*
X126645000Y-84957071D02*
X126645000Y-84560000D01*
X127595000Y-81900000D02*
X122395000Y-81900000D01*
X127595000Y-84560000D02*
X127595000Y-81900000D01*
%TO.C,J4*%
X123170000Y-52730000D02*
X123170000Y-47590000D01*
X125830000Y-47590000D02*
X123170000Y-47590000D01*
X125830000Y-52730000D02*
X123170000Y-52730000D01*
X125830000Y-52730000D02*
X125830000Y-47590000D01*
X125830000Y-54000000D02*
X125830000Y-55330000D01*
X125830000Y-55330000D02*
X124500000Y-55330000D01*
%TO.C,SW6*%
X124730000Y-127030000D02*
X124730000Y-126030000D01*
X124980000Y-135720000D02*
X124980000Y-126280000D01*
X125730000Y-126030000D02*
X124730000Y-126030000D01*
X128300000Y-129300000D02*
X128300000Y-132600000D01*
X131600000Y-129300000D02*
X128300000Y-129300000D01*
X131600000Y-129300000D02*
X131600000Y-132600000D01*
X131600000Y-132600000D02*
X128300000Y-132600000D01*
X135020000Y-126280000D02*
X124980000Y-126280000D01*
X135020000Y-135720000D02*
X124980000Y-135720000D01*
X135020000Y-135720000D02*
X135020000Y-126280000D01*
%TD*%
M02*
